<?xml version="1.0" encoding="UTF-8"?>
<svg version="1.1" xmlns="http://www.w3.org/2000/svg" width="4320" height="4321">
<path d="M0 0 C3.35766222 3.03601028 6.6744079 6.11530674 9.984375 9.203125 C12.61874853 11.65810865 15.3018191 14.05265624 18 16.4375 C22.62109158 20.56938807 26.96992556 24.93982786 31.32641602 29.34570312 C34.11499077 32.15444617 36.91315473 34.87943494 39.9375 37.4375 C43.83214092 40.75208802 47.44265164 44.32903631 51.0625 47.9375 C51.92959595 48.79782837 51.92959595 48.79782837 52.81420898 49.67553711 C55.77247022 52.64387045 58.60909579 55.66825711 61.33984375 58.84765625 C65.48593519 63.64209816 69.98472077 68.05605219 74.5 72.5 C79.69196802 77.6099464 84.74798755 82.74257435 89.49414062 88.27148438 C91.39655796 90.45519299 93.42186998 92.48390371 95.5 94.5 C98.23455365 97.15292518 100.8014701 99.88978006 103.296875 102.765625 C107.00292389 107.03632941 110.85780718 111.14926299 114.75 115.25 C120.33716671 121.16113496 125.88005431 127.10550046 131.36328125 133.11328125 C134.21100577 136.23101225 137.07210939 139.3360167 139.9375 142.4375 C140.43813965 142.97938965 140.9387793 143.5212793 141.45458984 144.07958984 C142.46725844 145.17564318 143.47995378 146.27167179 144.49267578 147.36767578 C145.97410134 148.97195361 147.45408992 150.57754366 148.93359375 152.18359375 C155.97029106 159.82025592 163.03915091 167.42625243 170.13623047 175.00683594 C172.04305022 177.04603903 173.94538509 179.08936649 175.84765625 181.1328125 C183.46130705 189.2894202 191.19322312 197.29669782 199.15356445 205.11669922 C203.09634645 209.00911109 206.82703405 212.99916475 210.40600586 217.22998047 C212.00195331 219.00216902 213.67544679 220.52966237 215.5 222.0625 C219.73731884 225.64601379 223.60020588 229.55866792 227.5 233.5 C233.96934898 240.02541885 233.96934898 240.02541885 240.8125 246.15234375 C242.64956634 247.70400871 244.45269421 249.28181055 246.25 250.87890625 C272.30522799 273.94646809 300.266333 293.74663149 336.43505859 292.19091797 C358.19668952 290.5711202 380.239453 275.45469615 394.33203125 259.33203125 C409.18162155 240.58663702 415.64114501 218.79201838 414 195 C411.2052439 171.6143261 399.14192792 149.2358358 380.81640625 134.33984375 C362.87005548 120.49558987 340.94163001 114.06292829 318.375 116.6875 C292.97227404 120.77102797 271.30911396 132.95726363 252.71875 150.51171875 C242.54870037 159.81965211 231.04655322 167.77964286 220 176 C213.83128647 170.77028274 208.04333171 165.43095748 202.78125 159.2734375 C199.04347951 154.9809344 195.06172488 150.98391406 191 147 C186.38174047 142.47021287 181.9680272 137.87040516 177.74609375 132.96875 C174.81371565 129.66244449 171.65415868 126.59281885 168.5 123.5 C164.15419795 119.20047464 159.93931722 114.8966892 156 110.21875 C152.36927048 106.19090944 148.46278673 102.42461585 144.59179688 98.62890625 C141.44497522 95.52474224 138.41664009 92.38118135 135.53125 89.03125 C131.88933509 84.8076119 127.97965701 80.90341837 124 77 C119.38174047 72.47021287 114.9680272 67.87040516 110.74609375 62.96875 C107.81367067 59.66239377 104.65364589 56.59341089 101.5 53.5 C89.14373584 41.23645722 89.14373584 41.23645722 87 38 C87 31.65096264 94.12876782 25.93950267 98.35546875 21.55859375 C99.86133338 20.06828022 101.37302007 18.58382527 102.890625 17.10546875 C104.82145804 15.17821133 106.60672813 13.20061436 108.375 11.125 C114.68072567 3.79514255 121.64834474 -3.01535777 129.0078125 -9.28125 C130.40130591 -10.48347961 131.7694189 -11.71547441 133.1171875 -12.96875 C140.32283782 -19.66490989 148.0587602 -25.5816441 155.93505859 -31.45703125 C157.75265836 -32.81518099 159.55859541 -34.18729338 161.36328125 -35.5625 C210.56304559 -72.08686718 271.32984159 -88.57499758 332.125 -88.3125 C333.01186493 -88.31067719 333.89872986 -88.30885437 334.81246948 -88.30697632 C378.3255663 -88.15733958 421.49357515 -78.63779719 460 -58 C460.71220703 -57.62649414 461.42441406 -57.25298828 462.15820312 -56.86816406 C473.7672708 -50.76908695 484.49832131 -43.84640995 495 -36 C495.91990723 -35.31768311 495.91990723 -35.31768311 496.85839844 -34.62158203 C506.52643639 -27.40351878 515.33289641 -19.38106057 524 -11 C524.83241211 -10.20045898 524.83241211 -10.20045898 525.68164062 -9.38476562 C532.65731827 -2.66213553 539.04701671 4.34339873 545 12 C545.48581543 12.61472168 545.97163086 13.22944336 546.47216797 13.86279297 C588.8962752 67.56865725 613.0980997 134.53158912 615 203 C615.02191406 203.680625 615.04382812 204.36125 615.06640625 205.0625 C617.02568201 274.02900673 594.97662147 347.19548824 547 398 C545.93277054 399.24596449 544.87020443 400.49593956 543.8125 401.75 C535.086515 411.7312311 525.51302922 420.92699746 515 429 C514.43120117 429.44520996 513.86240234 429.89041992 513.27636719 430.34912109 C466.7086307 466.75863902 409.65129742 488.69934703 351 495 C349.80246094 495.13148438 348.60492187 495.26296875 347.37109375 495.3984375 C264.02369572 502.82046813 188.45026804 466.29453009 125.73046875 414.296875 C124.82941406 413.53890625 123.92835938 412.7809375 123 412 C122.46842285 411.55333984 121.9368457 411.10667969 121.38916016 410.64648438 C113.88625849 404.32600067 106.55752768 397.84766343 99.38769531 391.15209961 C96.8061042 388.74403321 94.20369851 386.36002335 91.5942688 383.9821167 C84.05811839 377.09218733 76.79418156 369.94803069 69.58642578 362.71679688 C67.6095399 360.73449756 65.62728961 358.75767367 63.64453125 356.78125 C58.02538652 351.16474344 52.44038176 345.57308026 47.29443359 339.51269531 C45.62980499 337.56738433 43.84116496 335.77767651 42 334 C38.89753998 330.93882747 36.01893576 327.76857732 33.1796875 324.46484375 C30.18656755 321.08015076 27.09175171 317.79448292 24 314.5 C19.84526019 310.06935739 15.73202153 305.62404527 11.76953125 301.01953125 C9.39115503 298.3051372 6.94487646 295.65430875 4.5 293 C0.8557523 289.0414766 -2.73913966 285.04822953 -6.265625 280.984375 C-9.79500714 276.94625309 -13.40634226 272.98085319 -17 269 C-18.50028679 267.33359149 -20.00028872 265.66692647 -21.5 264 C-22.2425 263.175 -22.985 262.35 -23.75 261.5 C-26 259 -28.25 256.5 -30.5 254 C-31.24507812 253.17242188 -31.99015625 252.34484375 -32.7578125 251.4921875 C-34.23292618 249.85260121 -35.70691652 248.21200345 -37.1796875 246.5703125 C-42.57218506 240.56372269 -48.00086246 234.59116716 -53.47265625 228.65673828 C-54.51528045 227.52578434 -55.55690403 226.39390732 -56.59765625 225.26123047 C-65.28645185 215.81498963 -74.2299172 206.66090816 -83.35131836 197.63232422 C-86.2920696 194.72074969 -89.21466222 191.79136984 -92.12963867 188.85400391 C-94.6884728 186.27555502 -97.25044676 183.70024998 -99.8125 181.125 C-101.10897461 179.81595703 -101.10897461 179.81595703 -102.43164062 178.48046875 C-106.92111381 173.97405416 -111.46185789 169.60780429 -116.29077148 165.46630859 C-118.45111928 163.61299494 -120.53421055 161.68112916 -122.625 159.75 C-128.21358298 154.71432097 -134.0859808 150.10101873 -140.04345703 145.51513672 C-142.10158946 143.92132965 -144.1429272 142.30750144 -146.18359375 140.69140625 C-169.31453411 122.49832512 -193.03406878 111.568873 -223 114 C-228.1833202 114.75497829 -233.07440612 116.23606366 -238 118 C-238.90621094 118.30035156 -239.81242187 118.60070313 -240.74609375 118.91015625 C-262.14319713 126.62112486 -279.15739597 144.89543288 -289 165 C-298.79863658 186.83347654 -301.49240002 210.0805402 -294 233 C-293.71125 233.91910156 -293.4225 234.83820313 -293.125 235.78515625 C-285.71539447 256.65775039 -267.39794675 272.28447997 -248.14111328 281.98632812 C-227.7984479 291.61720004 -205.67797991 293.98575954 -184.13671875 286.78125 C-170.03849246 281.4218398 -157.1925645 273.88550234 -145.57128906 264.29492188 C-144.04793969 263.03950779 -142.50468923 261.80836417 -140.9609375 260.578125 C-128.06786801 250.08409021 -116.64958348 237.82796344 -105 226 C-100.9176979 227.62237082 -98.18080028 230.54447589 -95.14916992 233.60791016 C-94.57461563 234.1805661 -94.00006134 234.75322205 -93.40809631 235.3432312 C-91.51063359 237.23699109 -89.62046762 239.13785577 -87.73046875 241.0390625 C-86.40810545 242.36261878 -85.08537132 243.68580464 -83.76228333 245.00863647 C-80.98774537 247.78473885 -78.21659847 250.56416775 -75.44799805 253.34619141 C-71.91602366 256.8950807 -68.37757821 260.43742755 -64.83675671 263.97748756 C-62.10223988 266.71227782 -59.37034902 269.44967873 -56.63930702 272.18793869 C-55.33667234 273.4937356 -54.03344872 274.79894529 -52.72960472 276.1035347 C-50.8968906 277.93844285 -49.06752102 279.77662351 -47.23901367 281.61572266 C-46.70942047 282.14486267 -46.17982727 282.67400269 -45.63418579 283.21917725 C-42.82740206 286.0494937 -40.14697368 288.94894654 -37.53839111 291.96359253 C-34.2213916 295.79012309 -30.7373702 299.39796219 -27.14672852 302.96679688 C-26.17959175 303.93415268 -26.17959175 303.93415268 -25.19291687 304.92105103 C-23.09061182 307.02266713 -20.98480223 309.1207327 -18.87890625 311.21875 C-17.40895544 312.686833 -15.93922728 314.15513897 -14.4697113 315.62365723 C-10.62344055 319.46613136 -6.77417494 323.3055914 -2.92425537 327.14440918 C1.0126134 331.07100211 4.94661131 335.00046906 8.88085938 338.9296875 C16.58444922 346.62259043 24.29120935 354.31230887 32 362 C30.35793263 366.34109764 28.16199623 369.89087697 25.4375 373.625 C24.99204834 374.24036621 24.54659668 374.85573242 24.08764648 375.48974609 C9.2608606 395.79342416 -8.8370029 415.87056137 -29 431 C-29.53061035 431.40702148 -30.0612207 431.81404297 -30.60791016 432.23339844 C-92.95960994 480.01694407 -171.54769194 500.27075472 -249.30175781 490.58886719 C-256.24857868 489.62515872 -263.12762855 488.39450039 -270 487 C-271.30227539 486.73944824 -271.30227539 486.73944824 -272.63085938 486.47363281 C-321.13293087 476.51174189 -367.28960868 453.61078418 -403.76953125 420.046875 C-405.83296274 418.15328813 -407.93574581 416.32173836 -410.0625 414.5 C-437.1834695 390.82383106 -457.75323911 359.25082694 -473.07324219 326.95263672 C-473.69202129 325.64889719 -474.31771072 324.34841547 -474.95019531 323.05126953 C-486.12987413 300.02928657 -493.37980486 275.10820702 -498 250 C-498.26466064 248.64116699 -498.26466064 248.64116699 -498.53466797 247.25488281 C-504.01358808 218.09551612 -503.66694709 184.09550367 -498 155 C-497.71793701 153.46714355 -497.71793701 153.46714355 -497.43017578 151.90332031 C-492.62700462 126.30933429 -484.56057892 101.34736401 -473 78 C-472.60264648 77.17838379 -472.20529297 76.35676758 -471.79589844 75.51025391 C-461.93690122 55.22988552 -449.44317464 36.31029274 -435 19 C-434.55833496 18.45827148 -434.11666992 17.91654297 -433.66162109 17.35839844 C-421.88479466 2.91361454 -408.7487098 -10.58705813 -394 -22 C-392.86311961 -22.93414405 -391.72919986 -23.87189849 -390.59765625 -24.8125 C-315.3691397 -86.99659431 -211.6937546 -102.29759476 0 0 Z " fill="#EDA91D" transform="translate(2340,1669)"/>
<path d="M0 0 C75.9825 -0.0928125 75.9825 -0.0928125 153.5 -0.1875 C169.46568359 -0.21481201 185.43136719 -0.24212402 201.88085938 -0.27026367 C221.45019531 -0.28381348 221.45019531 -0.28381348 230.62561035 -0.28633118 C237.0029232 -0.28911425 243.38015605 -0.30005663 249.75744629 -0.31672668 C257.13201948 -0.33597473 264.50651668 -0.34447276 271.88111511 -0.34033485 C275.64450527 -0.33854624 279.40772617 -0.34115512 283.1710844 -0.35764539 C304.67113023 -0.44726202 325.9589161 0.40606908 346.875 5.8125 C347.90979492 6.07256836 348.94458984 6.33263672 350.01074219 6.60058594 C377.5838769 13.67959761 403.32238879 25.2202639 425 44 C425.804375 44.69480469 426.60875 45.38960937 427.4375 46.10546875 C429.99696384 48.36499542 432.50537163 50.66914112 435 53 C435.87527344 53.80953125 436.75054688 54.6190625 437.65234375 55.453125 C472.36495592 88.72145345 488.74934465 137.94146323 490.21875 185.109375 C491.29428088 238.91443682 474.82206307 288.43469333 437.40576172 327.55810547 C400.65308673 365.25544804 346.90792304 381.5181242 295.33977687 382.29213727 C287.37711303 382.37757878 279.41430175 382.34536097 271.45146942 382.30384064 C267.55076997 382.28640271 263.65012852 382.28593258 259.74938965 382.28381348 C248.43705826 382.26824238 237.12477536 382.22635962 225.8125 382.1875 C200.464375 382.125625 175.11625 382.06375 149 382 C149 446.35 149 510.7 149 577 C99.83 577 50.66 577 0 577 C0 386.59 0 196.18 0 0 Z M149 126 C149 168.57 149 211.14 149 255 C179.6590625 255.0928125 179.6590625 255.0928125 210.9375 255.1875 C220.57247681 255.22846802 220.57247681 255.22846802 230.40209961 255.27026367 C236.22437047 255.28030486 236.22437047 255.28030486 242.04664612 255.28633118 C245.28336094 255.29208987 248.51982545 255.30917366 251.75647676 255.32905567 C277.47322902 255.46296641 300.62540127 253.63185782 320.5703125 235.6875 C332.81173982 223.0726054 337.98161523 206.3000649 338 189 C336.94802308 170.54258672 329.99084872 154.98571477 316.59765625 142.21875 C297.19490236 125.64617224 273.64934902 125.5442571 249.54329681 125.69615936 C246.3475188 125.71346101 243.15175177 125.71406033 239.95593262 125.71618652 C230.65807947 125.73182264 221.36028537 125.7737063 212.0625 125.8125 C191.251875 125.874375 170.44125 125.93625 149 126 Z " fill="#FFFFFF" transform="translate(3048,1600)"/>
<path d="M0 0 C1.18634757 0.00092179 2.37269514 0.00184359 3.59499264 0.00279331 C4.25329899 0.00193889 4.91160535 0.00108446 5.58986038 0.00020415 C7.81172657 -0.00145248 10.03351845 0.00407365 12.25537777 0.00952244 C13.84171198 0.0098043 15.42804632 0.0096466 17.01438046 0.00907993 C21.33444272 0.00879191 25.65447747 0.01468945 29.97453332 0.02165389 C34.48423865 0.02788658 38.99394455 0.02849116 43.50365353 0.0296793 C52.04949925 0.03279286 60.59533224 0.04100659 69.14117235 0.05102879 C78.86773184 0.06218914 88.59429192 0.06770018 98.32085621 0.07272422 C118.33476309 0.08318919 138.3486585 0.10078911 158.3625555 0.12304783 C155.26425474 10.65716931 155.26425474 10.65716931 153.4875555 15.25415134 C152.97809887 16.58040028 152.97809887 16.58040028 152.45835018 17.93344212 C152.09673794 18.86355106 151.73512569 19.79366001 151.3625555 20.75195408 C150.97492031 21.75779545 150.58728512 22.76363682 150.1879034 23.79995823 C148.91637546 27.09655296 147.6395199 30.39105557 146.3625555 33.68554783 C145.4604028 36.0211264 144.55855238 38.35682175 143.6569891 40.69262791 C140.89747235 47.83815518 138.13067834 54.98085092 135.3625555 62.12304783 C134.5477586 64.22623086 133.73297922 66.32942068 132.91821957 68.43261814 C129.83167786 76.39877145 126.74334534 84.36422784 123.651618 92.32837009 C117.53515235 108.08552135 111.44512083 123.85278264 105.3625555 139.62304783 C98.16229155 158.2904741 90.94492658 176.95112168 83.70581722 195.60351658 C77.2383678 212.26911256 70.79587078 228.94424782 64.3625555 245.62304783 C57.16220404 264.29044045 49.94492665 282.95112149 42.70581722 301.60351658 C36.2383678 318.26911256 29.79587078 334.94424782 23.3625555 351.62304783 C16.16220404 370.29044045 8.94492665 388.95112149 1.70581722 407.60351658 C-4.76163223 424.26911264 -11.20409777 440.9442599 -17.6374445 457.62304783 C-26.5603772 480.75586891 -35.51341116 503.87687444 -44.48304081 526.99162388 C-49.54298179 540.03215174 -54.5899415 553.07770194 -59.6374445 566.12304783 C-86.08358169 567.22087191 -112.54568374 567.63599313 -139.00853825 568.1188364 C-143.87580518 568.20831304 -148.74302094 568.3004176 -153.61023808 568.39255714 C-158.34079556 568.48189313 -163.07137591 568.56996439 -167.80196476 568.65762234 C-170.04084166 568.69918593 -172.27971309 568.741045 -174.51857853 568.78322124 C-196.71736962 569.19952333 -196.71736962 569.19952333 -207.6374445 569.12304783 C-208.80838455 566.33310393 -209.97435377 563.54126186 -211.1374445 560.74804783 C-211.47131168 559.95398533 -211.80517887 559.15992283 -212.14916325 558.34179783 C-212.46498356 557.58125095 -212.78080387 556.82070408 -213.1061945 556.03711033 C-213.39945621 555.33537693 -213.69271793 554.63364353 -213.99486637 553.91064548 C-214.6374445 552.12304783 -214.6374445 552.12304783 -214.6374445 550.12304783 C-215.30574284 550.12828465 -215.97404118 550.13352146 -216.66259098 550.13891697 C-222.10318317 550.1757881 -227.54065755 550.17610977 -232.9811945 550.12695408 C-236.92250553 550.09619754 -240.80151242 550.16816542 -244.7311945 550.46289158 C-249.0107012 550.68250889 -252.53864092 550.59395327 -256.6374445 549.12304783 C-261.27744969 544.69112674 -264.05389863 538.91222185 -266.6374445 533.12304783 C-266.6374445 532.79304783 -266.6374445 532.46304783 -266.6374445 532.12304783 C-240.8974445 531.79304783 -215.1574445 531.46304783 -188.6374445 531.12304783 C-190.9474445 522.87304783 -193.2574445 514.62304783 -195.6374445 506.12304783 C-195.6374445 505.46304783 -195.6374445 504.80304783 -195.6374445 504.12304783 C-196.67070866 504.10322849 -197.70397282 504.08340916 -198.76854801 504.06298923 C-211.4661914 503.81524995 -224.1626728 503.52481955 -236.85894108 503.2148447 C-239.46516679 503.15152774 -242.0714001 503.08891993 -244.67766666 503.0273447 C-252.53060794 502.84122855 -260.38309535 502.64380478 -268.23516655 502.42378902 C-271.78905634 502.32441109 -275.3429184 502.22990108 -278.89724064 502.14727879 C-282.91535119 502.05355518 -286.93248907 501.93689572 -290.9499445 501.81836033 C-292.1595232 501.79326389 -293.36910191 501.76816746 -294.61533451 501.74231052 C-295.73251362 501.70569309 -296.84969273 501.66907566 -298.00072575 501.63134861 C-298.9730817 501.60549686 -299.94543766 501.57964512 -300.94725895 501.55300999 C-305.13066534 500.884392 -307.80232701 499.19677031 -310.3874445 495.87304783 C-311.6374445 493.12304783 -311.6374445 493.12304783 -312.6374445 486.12304783 C-287.8874445 485.79304783 -263.1374445 485.46304783 -237.6374445 485.12304783 C-242.2574445 473.57304783 -246.8774445 462.02304783 -251.6374445 450.12304783 C-258.4892548 450.13259495 -258.4892548 450.13259495 -265.47948551 450.14233494 C-280.56301143 450.15826925 -295.64630475 450.13623779 -310.72977638 450.0945816 C-319.87594189 450.07025124 -329.02177621 450.05893721 -338.16796207 450.07837009 C-346.14075476 450.09527674 -354.11308418 450.08765449 -362.08581585 450.05070025 C-366.30665744 450.03198967 -370.52671573 450.02547936 -374.74755383 450.04835415 C-378.72311231 450.0695118 -382.69723795 450.05779333 -386.67267132 450.02120304 C-388.1290823 450.01352962 -389.58561328 450.01771614 -391.04194355 450.03486156 C-403.40280616 450.16920077 -403.40280616 450.16920077 -407.74668217 446.00514317 C-409.13639069 444.30672646 -409.13639069 444.30672646 -410.6374445 442.12304783 C-412.2874445 439.81304783 -413.9374445 437.50304783 -415.6374445 435.12304783 C-352.2774445 435.12304783 -288.9174445 435.12304783 -223.6374445 435.12304783 C-221.22208098 429.08463904 -220.55255436 426.56949273 -221.5749445 420.24804783 C-222.24536414 416.06569481 -222.6374445 412.38319438 -222.6374445 408.12304783 C-260.9174445 408.12304783 -299.1974445 408.12304783 -338.6374445 408.12304783 C-342.9274445 400.20304783 -347.2174445 392.28304783 -351.6374445 384.12304783 C-353.6174445 380.65804783 -353.6174445 380.65804783 -355.6374445 377.12304783 C-355.6374445 376.46304783 -355.6374445 375.80304783 -355.6374445 375.12304783 C-333.5274445 375.12304783 -311.4174445 375.12304783 -288.6374445 375.12304783 C-292.09785144 357.29521111 -292.09785144 357.29521111 -302.6374445 342.12304783 C-305.13022964 341.84486387 -305.13022964 341.84486387 -307.96665287 341.92532444 C-309.62544971 341.93459209 -309.62544971 341.93459209 -311.31775761 341.94404697 C-312.53176746 341.96073933 -313.74577732 341.97743168 -314.99657536 341.99462986 C-316.95909413 342.00879914 -318.92161314 342.02294856 -320.88413727 342.03635573 C-322.99576722 342.05215041 -325.10732309 342.07237735 -327.21890926 342.09317493 C-331.62888754 342.1342332 -336.03871407 342.14947083 -340.44886112 342.1584177 C-341.19394379 342.16003316 -341.93902646 342.16164862 -342.70668739 342.16331303 C-344.23057065 342.16655052 -345.75445406 342.16972023 -347.2783376 342.17282367 C-357.54378015 342.1946112 -367.80835334 342.23235736 -378.07323551 342.34570408 C-384.99876402 342.42198364 -391.92306039 342.45520872 -398.84901053 342.43980205 C-402.5102928 342.43335215 -406.16859748 342.44822681 -409.82932186 342.51587391 C-435.06237618 342.96204982 -435.06237618 342.96204982 -441.96898842 336.83544827 C-447.6374445 330.74206164 -447.6374445 330.74206164 -447.6374445 327.12304783 C-447.00944321 327.09820096 -446.38144192 327.07335409 -445.73441029 327.04775429 C-430.40829126 326.44119598 -415.08229072 325.83173657 -399.75641346 325.21910286 C-392.34474207 324.92289918 -384.93303486 324.62765439 -377.52123356 324.33471775 C-371.05627447 324.07920067 -364.59139209 323.82183269 -358.12659287 323.5623011 C-354.70794621 323.42512152 -351.2892697 323.2888288 -347.87049961 323.1547575 C-344.04108573 323.00411477 -340.21181581 322.85020128 -336.38256168 322.69555759 C-334.70803928 322.63081997 -334.70803928 322.63081997 -332.99968815 322.56477451 C-325.85892166 322.27206008 -318.75457718 321.7724139 -311.6374445 321.12304783 C-310.37768411 317.34376667 -311.10689705 315.97972207 -312.36791325 312.24023533 C-312.75914371 311.0723447 -313.15037418 309.90445408 -313.55346012 308.70117283 C-313.97304996 307.47914158 -314.39263981 306.25711033 -314.8249445 304.99804783 C-315.2251984 303.7992197 -315.62545231 302.60039158 -316.03783512 301.36523533 C-319.08866561 291.41196817 -319.08866561 291.41196817 -323.6374445 282.12304783 C-326.88201813 281.04152329 -329.35801684 281.07786358 -332.739007 281.19726658 C-339.80639894 281.35959184 -346.81287743 280.80638654 -352.1374445 275.74804783 C-354.51640027 271.58487523 -355.6374445 268.98039627 -355.6374445 264.12304783 C-338.8074445 264.12304783 -321.9774445 264.12304783 -304.6374445 264.12304783 C-307.6074445 257.85304783 -310.5774445 251.58304783 -313.6374445 245.12304783 C-313.6374445 244.46304783 -313.6374445 243.80304783 -313.6374445 243.12304783 C-314.32858939 243.126735 -315.01973429 243.13042217 -315.73182297 243.13422108 C-332.54912266 243.22255955 -349.36634886 243.28875123 -366.18382645 243.33029652 C-374.31664392 243.35092155 -382.44930651 243.37904089 -390.58202457 243.42480564 C-397.67053513 243.46467537 -404.75893351 243.49048107 -411.84755307 243.49940181 C-415.60095817 243.50461639 -419.35404238 243.51687087 -423.10734463 243.54596806 C-427.29745434 243.57818806 -431.48700624 243.57900716 -435.67723942 243.57714939 C-436.92161274 243.59153049 -438.16598606 243.6059116 -439.44806767 243.62072849 C-440.59085178 243.61522984 -441.7336359 243.60973118 -442.91104984 243.6040659 C-443.9019773 243.60775307 -444.89290476 243.61144024 -445.91386032 243.61523914 C-449.42189441 242.98128631 -451.08379375 241.56202726 -453.6374445 239.12304783 C-455.21947575 236.39648533 -455.21947575 236.39648533 -456.4499445 233.49804783 C-456.86888981 232.5364072 -457.28783512 231.57476658 -457.71947575 230.58398533 C-458.6374445 228.12304783 -458.6374445 228.12304783 -458.6374445 226.12304783 C-393.6274445 226.12304783 -328.6174445 226.12304783 -261.6374445 226.12304783 C-265.5974445 216.22304783 -269.5574445 206.32304783 -273.6374445 196.12304783 C-274.6274445 192.65804783 -274.6274445 192.65804783 -275.6374445 189.12304783 C-276.91149647 189.12748905 -278.18554844 189.13193027 -279.49820805 189.13650608 C-291.54667057 189.17717468 -303.59511903 189.20709084 -315.6436348 189.22667217 C-321.83683175 189.23707776 -328.02997297 189.25117771 -334.22313786 189.27392673 C-340.2078013 189.29577053 -346.19241137 189.30764067 -352.17711163 189.31280231 C-354.45227555 189.31647744 -356.72743678 189.32365366 -359.00257778 189.33450794 C-391.92182628 189.48521245 -391.92182628 189.48521245 -398.6374445 183.12304783 C-400.64388191 179.84586671 -401.6374445 177.97064321 -401.6374445 174.12304783 C-400.93136051 174.10322849 -400.22527653 174.08340916 -399.49779606 174.06298923 C-396.29397456 173.96764368 -393.09079648 173.8580027 -389.8874445 173.74804783 C-388.77627262 173.71711033 -387.66510075 173.68617283 -386.520257 173.65429783 C-385.45033512 173.61562595 -384.38041325 173.57695408 -383.2780695 173.53711033 C-382.29354801 173.50568943 -381.30902653 173.47426853 -380.29467106 173.44189548 C-377.62892249 173.12202525 -375.93128044 172.47936162 -373.6374445 171.12304783 C-374.04118562 162.93885462 -376.01737885 155.5446194 -378.4499445 147.74804783 C-378.96524723 146.00587986 -378.96524723 146.00587986 -379.49096012 144.22851658 C-379.83449528 143.11347752 -380.17803043 141.99843845 -380.53197575 140.84961033 C-380.83981998 139.84494724 -381.14766422 138.84028416 -381.46483707 137.80517673 C-382.77898751 134.79929361 -384.10898748 133.1953611 -386.6374445 131.12304783 C-393.01494866 128.90651672 -398.52401289 129.18193497 -405.21474552 129.62642002 C-424.84086767 130.88167402 -424.84086767 130.88167402 -430.09496403 127.57763767 C-433.66993089 123.7810548 -437.6374445 117.5430042 -437.6374445 112.12304783 C-423.4474445 111.79304783 -409.2574445 111.46304783 -394.6374445 111.12304783 C-393.08235359 98.68232056 -395.98179429 85.43434824 -401.6374445 74.12304783 C-402.61161823 74.11131535 -403.58579197 74.09958286 -404.58948612 74.08749485 C-413.78553075 73.97289799 -422.98063586 73.82730478 -432.17572212 73.651618 C-436.90272054 73.56229063 -441.62937753 73.48376408 -446.35692692 73.43017673 C-450.92230439 73.3780258 -455.48636506 73.29716969 -460.05092525 73.1966753 C-461.78940184 73.1633935 -463.52810606 73.14033008 -465.26685619 73.12782001 C-480.60749545 73.00630758 -480.60749545 73.00630758 -485.16283512 69.20776463 C-487.20872022 66.65747277 -488.86112937 64.57620407 -490.0749445 61.56054783 C-490.38303043 60.83738377 -490.69111637 60.1142197 -491.00853825 59.36914158 C-491.6374445 57.12304783 -491.6374445 57.12304783 -491.6374445 52.12304783 C-433.5574445 52.12304783 -375.4774445 52.12304783 -315.6374445 52.12304783 C-318.6074445 43.21304783 -321.5774445 34.30304783 -324.6374445 25.12304783 C-324.6374445 24.46304783 -324.6374445 23.80304783 -324.6374445 23.12304783 C-329.7521872 23.09767708 -334.86689066 23.07988407 -339.98168278 23.06811619 C-341.70922835 23.06319305 -343.43677003 23.05645466 -345.16429996 23.04760838 C-355.20452821 22.9976131 -365.20487132 23.14373433 -375.23510075 23.61132908 C-387.35642284 24.17038905 -399.464171 24.3426777 -411.59764957 24.3632822 C-415.12480931 24.37318787 -418.65143096 24.40446198 -422.17846012 24.43554783 C-424.45514946 24.44206336 -426.73184284 24.44731948 -429.00853825 24.45117283 C-430.04610767 24.46351963 -431.0836771 24.47586643 -432.15268803 24.48858738 C-438.23682255 24.47001168 -444.20947249 24.1442272 -449.6374445 21.12304783 C-452.15902097 18.021686 -453.63003001 15.09530088 -453.645257 11.04492283 C-453.3874445 9.12304783 -453.3874445 9.12304783 -452.6374445 6.12304783 C-444.7077495 5.0803912 -436.81280206 4.83820287 -428.82372379 4.64233494 C-427.33668062 4.6030831 -425.84964568 4.5635183 -424.36261845 4.52366734 C-420.32574861 4.41660825 -416.28876689 4.31458292 -412.25173259 4.21393752 C-409.69376097 4.14994371 -407.13581899 4.08487244 -404.57788372 4.01944256 C-395.54534505 3.78846179 -386.51271167 3.56167447 -377.47997379 3.338624 C-370.14875407 3.15749288 -362.81772101 2.97030731 -355.48680973 2.77710056 C-308.19321419 1.53230502 -260.94807793 0.81642649 -213.6374445 1.12304783 C-205.63269345 29.04898385 -197.62992234 56.97548695 -189.62863559 84.90241575 C-187.93655795 90.80826768 -186.24442429 96.71410354 -184.55215549 102.6199007 C-156.09331956 201.93768487 -156.09331956 201.93768487 -142.78692555 248.75284648 C-142.07765204 251.24821665 -141.36826783 253.74355533 -140.6588583 256.23888683 C-136.56820467 270.62822962 -132.47966555 285.01816694 -128.40212923 299.41123295 C-126.68463101 305.47336272 -124.96420953 311.53465915 -123.24279308 317.59567738 C-122.22281217 321.19069399 -121.20642964 324.78671477 -120.19016361 328.38278294 C-119.59190921 330.48937961 -118.99345797 332.5959204 -118.39476871 334.70239353 C-118.12624057 335.65668971 -117.85771242 336.61098589 -117.58104706 337.59420013 C-117.33692109 338.45013543 -117.09279512 339.30607073 -116.8412714 340.18794346 C-116.63122408 340.92975015 -116.42117676 341.67155684 -116.20476437 342.43584251 C-115.77210182 344.13667972 -115.77210182 344.13667972 -114.6374445 345.12304783 C-105.99125013 318.81641478 -97.36177567 292.5057088 -88.9499445 266.12304783 C-82.48663521 245.85423883 -75.95006736 225.60986016 -69.3874445 205.37304783 C-67.4068396 199.26501906 -65.42636128 193.15694924 -63.44603825 187.04882908 C-63.20124603 186.29382177 -62.95645382 185.53881447 -62.70424366 184.76092815 C-55.55680562 162.71490281 -48.44709504 140.65672879 -41.33757877 118.59845066 C-38.59227337 110.0817381 -35.84343859 101.56617106 -33.09264851 93.05122852 C-31.36149925 87.69226743 -29.63099904 82.33309671 -27.90050602 76.97392368 C-27.26758241 75.01395834 -26.63452619 73.05403587 -26.00145817 71.09411716 C-21.74039056 57.90071244 -17.49326759 44.70318758 -13.30541325 31.48632908 C-12.97215031 30.43509861 -12.63888737 29.38386814 -12.29552555 28.3007822 C-10.75375563 23.43494941 -9.21599008 18.56790627 -7.68480778 13.69873142 C-7.1547581 12.02114053 -6.62465129 10.34356769 -6.09447575 8.66601658 C-5.85698109 7.90581715 -5.61948643 7.14561771 -5.37479496 6.36238194 C-3.40935777 0.15906082 -3.40935777 0.15906082 0 0 Z " fill="#FEFEFE" transform="translate(1087.6374444961548,1598.8769521713257)"/>
<path d="M0 0 C49.17 0 98.34 0 149 0 C149 147.51 149 295.02 149 447 C225.56 447 302.12 447 381 447 C381 489.9 381 532.8 381 577 C255.27 577 129.54 577 0 577 C0 386.59 0 196.18 0 0 Z " fill="#FFFFFF" transform="translate(1402,1600)"/>
<path d="M0 0 C13.53 0 27.06 0 41 0 C44.04620273 6.70164601 47.01821088 13.33027436 49.72265625 20.16015625 C50.06124161 21.00874207 50.39982697 21.85732788 50.74867249 22.73162842 C51.85569777 25.50762982 52.95908841 28.2850605 54.0625 31.0625 C54.84135356 33.01728303 55.62049355 34.97195196 56.39990234 36.92651367 C58.05653231 41.08145862 59.71195148 45.23688323 61.36669922 49.39257812 C65.49033483 59.74435749 69.63269194 70.08865561 73.7729187 80.43380737 C75.93520938 85.83711824 78.09648298 91.24083586 80.2578125 96.64453125 C80.98843901 98.47111203 81.71906997 100.29769102 82.44970703 102.12426758 C82.96647135 103.41617839 83.48323568 104.70808919 84 106 C85.9601803 103.05972955 87.18002719 100.36091355 88.51953125 97.09765625 C88.89575119 96.18413895 88.89575119 96.18413895 89.27957153 95.25216675 C90.12733349 93.19034333 90.96999946 91.12647842 91.8125 89.0625 C92.41792554 87.58596779 93.02347954 86.10948824 93.62915039 84.63305664 C100.35891564 68.20280402 106.99222145 51.73300954 113.6262207 35.26391602 C114.27939774 33.64309616 114.27939774 33.64309616 114.94577026 31.98953247 C115.75204748 29.98844879 116.55779348 27.98715094 117.36282349 25.98556519 C120.86106352 17.30330057 124.43557862 8.65645191 128 0 C141.86 0 155.72 0 170 0 C170 54.12 170 108.24 170 164 C160.1 164 150.2 164 140 164 C139.67 125.39 139.34 86.78 139 47 C121.96715628 88.72026375 121.96715628 88.72026375 105.10522461 130.50878906 C103.67776633 134.06662247 102.24727959 137.62322645 100.81640625 141.1796875 C100.40185684 142.21600311 99.98730743 143.25231873 99.56019592 144.32003784 C96.88299361 150.9679027 94.00503931 157.49347434 91 164 C86.71 164 82.42 164 78 164 C74.2243629 155.86591794 70.7902401 147.64645685 67.4921875 139.30859375 C66.70232167 137.32133014 65.91138357 135.33449546 65.12036705 133.34768963 C64.57350687 131.97406876 64.02693061 130.60033483 63.48063087 129.22649097 C60.53431528 121.81977838 57.5538271 114.42694525 54.5703125 107.03515625 C54.03413686 105.70609428 53.49798371 104.37702322 52.96185303 103.04794312 C51.62048838 99.72300288 50.27867181 96.39824523 48.93670654 93.07354736 C46.75947406 87.6793348 44.58288414 82.28486301 42.40655136 76.8902874 C41.66578774 75.05438194 40.92471324 73.21860192 40.18362427 71.38282776 C36.77226986 62.928464 33.38588685 54.46471713 30 46 C29.67 84.94 29.34 123.88 29 164 C19.43 164 9.86 164 0 164 C0 109.88 0 55.76 0 0 Z " fill="#FFFFFF" transform="translate(2668,2241)"/>
<path d="M0 0 C59.73 0 119.46 0 181 0 C181 30.03 181 60.06 181 91 C121.27 91 61.54 91 0 91 C0 60.97 0 30.94 0 0 Z " fill="#FFFFFF" transform="translate(1178,1862)"/>
<path d="M0 0 C10.23 0 20.46 0 31 0 C39.51551095 8.79470803 39.51551095 8.79470803 41.3828125 12.8671875 C43.92775899 18.01329027 47.05434129 22.42431886 50.5 27 C51.58664781 28.49760063 52.66998408 29.99760967 53.75 31.5 C54.28625 32.2425 54.8225 32.985 55.375 33.75 C86.25 76.5 86.25 76.5 87.87744141 78.75341797 C88.95258911 80.24205913 90.02778384 81.73066632 91.10302734 83.21923828 C93.93700249 87.14274046 96.7699766 91.06696058 99.6015625 94.9921875 C100.19130859 95.80945312 100.78105469 96.62671875 101.38867188 97.46875 C102.51787978 99.03363654 103.64680161 100.59872956 104.77539062 102.1640625 C105.54012695 103.22367188 105.54012695 103.22367188 106.3203125 104.3046875 C106.76648926 104.92327637 107.21266602 105.54186523 107.67236328 106.17919922 C109.09682001 108.13278477 110.54934275 110.06579034 112 112 C112.33 75.04 112.66 38.08 113 0 C122.57 0 132.14 0 142 0 C142 54.12 142 108.24 142 164 C132.76 164 123.52 164 114 164 C109.23929596 158.04911996 104.6298598 152.23754532 100.3125 146 C99.27823714 144.52020852 98.2430489 143.04106346 97.20703125 141.5625 C96.68061035 140.81097656 96.15418945 140.05945312 95.61181641 139.28515625 C92.94140439 135.49917375 90.22034595 131.7501825 87.5 128 C83.29281581 122.19457335 79.12404378 116.36477784 75 110.5 C68.74567124 101.60923428 62.3788447 92.80166999 56 84 C53.81132367 80.98001633 51.62404163 77.95902949 49.4375 74.9375 C48.96836182 74.29111572 48.49922363 73.64473145 48.01586914 72.97875977 C42.26933239 65.03719809 36.65431314 57.01027695 31 49 C30.67 86.95 30.34 124.9 30 164 C20.1 164 10.2 164 0 164 C0 109.88 0 55.76 0 0 Z " fill="#FFFFFF" transform="translate(2915,2241)"/>
<path d="M0 0 C100.00348432 0 100.00348432 0 125.34375 24.2421875 C140.50288719 40.07621779 147.10201301 61.03195353 147.03125 82.703125 C146.7965868 92.96214517 145.23774851 102.22873031 142 112 C141.71253906 112.89976562 141.42507812 113.79953125 141.12890625 114.7265625 C134.78231677 132.49701304 120.55232488 146.51904169 104 155 C71.63292444 169.7009169 34.24366256 164 0 164 C0 109.88 0 55.76 0 0 Z M30 26 C30 62.96 30 99.92 30 138 C68.73624011 139.62565737 68.73624011 139.62565737 100.74609375 122.41796875 C112.96414219 109.31056496 116.68934652 94.33898749 116.30859375 76.86328125 C115.6088561 62.08168638 109.61281622 48.30166999 98.78515625 38.10546875 C78.08274888 22.45526178 56.51468523 26 30 26 Z " fill="#FFFFFF" transform="translate(2327,2241)"/>
<path d="M0 0 C17.8742554 14.75016907 27.32977845 35.71722093 29.61230469 58.48754883 C31.63170934 82.44273656 25.42315753 104.8485552 10.67480469 123.88208008 C-4.18925586 141.29855506 -24.49605058 150.20447048 -47.07519531 152.19458008 C-70.75348389 153.65052663 -93.33596685 147.07368595 -111.51269531 131.53051758 C-127.6490888 116.82081742 -136.71675695 95.92959391 -138.07519531 74.19458008 C-139.05201319 50.040538 -133.39172891 27.25965685 -117.37597656 8.68676758 C-87.68899182 -23.46993236 -34.34544819 -27.04728818 0 0 Z M-93.38769531 25.01098633 C-105.65169743 40.88037795 -108.81164792 58.50857331 -107.07519531 78.19458008 C-104.97640574 93.39936246 -97.52494193 106.68656222 -85.50878906 116.23364258 C-72.77531641 124.94504308 -59.14186792 126.69963248 -44.07519531 125.19458008 C-31.18778301 122.70385327 -19.25412371 115.07551379 -11.45019531 104.56958008 C-0.74744245 88.55152748 1.58425865 69.04422503 -2.13769531 50.31958008 C-6.28038425 35.3095583 -14.55431437 22.603832 -28.15722656 14.66723633 C-49.39195347 3.95037951 -76.85233641 7.16392828 -93.38769531 25.01098633 Z " fill="#FFFFFF" transform="translate(2621.0751953125,2255.805419921875)"/>
<path d="M0 0 C99.5511811 0 99.5511811 0 124 23 C141.63293578 41.74367189 146.71494807 63.51596554 146.3046875 88.53125 C145.67452372 106.44664995 139.1623499 123.64475437 127 137 C125.98486328 138.13501953 125.98486328 138.13501953 124.94921875 139.29296875 C109.4729898 155.70381898 88.82213841 161.81778616 67 164 C44.89 164 22.78 164 0 164 C0 109.88 0 55.76 0 0 Z M29 26 C29 62.96 29 99.92 29 138 C69.09629077 139.64629405 69.09629077 139.64629405 101.59375 121.55859375 C112.78659092 109.65711518 116.56243333 94.40789228 116.28125 78.375 C115.57951122 62.65605133 109.43153715 48.79645175 98 38 C77.83500915 21.79847287 54.69955058 26 29 26 Z " fill="#FFFFFF" transform="translate(835,2241)"/>
<path d="M0 0 C96.42148241 0 96.42148241 0 112.70703125 15.45703125 C123.37328164 27.28621184 125.81610872 40.97122818 125.34765625 56.3671875 C124.62662797 69.0149022 119.12931842 80.84770774 109.83203125 89.4765625 C104.81585703 93.64779479 99.95187902 96.13010052 93.73046875 98.14453125 C92.65563232 98.49491455 91.5807959 98.84529785 90.47338867 99.20629883 C89.65717041 99.46822021 88.84095215 99.7301416 88 100 C95.97938683 113.00508673 103.97505856 125.99924399 112.0625 138.9375 C112.65619385 139.88753906 113.2498877 140.83757813 113.86157227 141.81640625 C114.43447998 142.73164063 115.0073877 143.646875 115.59765625 144.58984375 C116.1508252 145.47526855 116.70399414 146.36069336 117.27392578 147.27294922 C118.49495045 149.20206457 119.73483163 151.11930507 120.98779297 153.02783203 C121.62990723 154.00993652 122.27202148 154.99204102 122.93359375 156.00390625 C123.52068115 156.89021729 124.10776855 157.77652832 124.71264648 158.68969727 C126 161 126 161 126 164 C102.13029316 167.8525899 102.13029316 167.8525899 92 164 C84.8096941 158.30757713 81.36892496 149.54005276 77.82344055 141.29917908 C74.714896 134.08779952 70.74349486 127.48659779 66.6633606 120.79135132 C64.81778652 117.75122057 63.01539294 114.68640779 61.21875 111.6171875 C60.61998047 110.60253418 60.02121094 109.58788086 59.40429688 108.54248047 C58 106 58 106 57 103 C47.76 103 38.52 103 29 103 C29 123.13 29 143.26 29 164 C19.43 164 9.86 164 0 164 C0 109.88 0 55.76 0 0 Z M29 26 C29 42.83 29 59.66 29 77 C39.3021875 77.12375 39.3021875 77.12375 49.8125 77.25 C51.9572583 77.28641602 54.1020166 77.32283203 56.31176758 77.36035156 C68.71145865 77.48406424 79.85696848 77.17558451 89.33984375 68.12109375 C93.18967162 63.2023725 94.69947116 57.49009614 95.4375 51.375 C94.50550461 44.18532126 92.26096919 37.19633812 87 32 C81.39129511 28.12708392 76.26274009 25.86723949 69.41503906 25.88647461 C68.04532959 25.88665588 68.04532959 25.88665588 66.64794922 25.88684082 C65.22119873 25.89451477 65.22119873 25.89451477 63.765625 25.90234375 C62.88503418 25.90335083 62.00444336 25.90435791 61.09716797 25.90539551 C57.81476536 25.91061867 54.53238134 25.92457994 51.25 25.9375 C43.9075 25.958125 36.565 25.97875 29 26 Z " fill="#FFFFFF" transform="translate(1496,2241)"/>
<path d="M0 0 C12.21 0 24.42 0 37 0 C43.28739438 15.28186134 49.4446819 30.60098654 55.4375 46 C55.76879913 46.85127472 56.10009827 47.70254944 56.44143677 48.57962036 C57.84055611 52.17527223 59.23946126 55.77100733 60.63804626 59.36686707 C64.63085039 69.62887772 68.64663172 79.88186249 72.66641235 90.1333313 C73.51150425 92.28857838 74.35637445 94.4439124 75.20101929 96.59933472 C79.79393435 108.31916778 84.402877 120.03232397 89.05078125 131.73046875 C89.45115097 132.73905945 89.85152069 133.74765015 90.26402283 134.7868042 C92.16251263 139.56907506 94.06426886 144.34999051 95.97241211 149.12841797 C96.64320501 150.81602564 97.31386722 152.50368527 97.984375 154.19140625 C98.29268753 154.95962204 98.60100006 155.72783783 98.9186554 156.51933289 C101 161.77291781 101 161.77291781 101 164 C90.11 164 79.22 164 68 164 C66.185 159.276875 64.37 154.55375 62.5 149.6875 C61.63858398 147.45746216 61.63858398 147.45746216 60.75976562 145.18237305 C60.31310547 144.01230713 59.86644531 142.84224121 59.40625 141.63671875 C58.94541016 140.43748779 58.48457031 139.23825684 58.00976562 138.00268555 C57 135 57 135 57 132 C31.59 132 6.18 132 -20 132 C-20.33 133.65 -20.66 135.3 -21 137 C-21.72598863 139.14394324 -22.49148014 141.27471278 -23.28515625 143.39453125 C-23.89049194 145.02032104 -23.89049194 145.02032104 -24.50805664 146.67895508 C-25.02102295 148.0430249 -25.53398926 149.40709473 -26.0625 150.8125 C-28.5065625 157.3403125 -28.5065625 157.3403125 -31 164 C-41.89 164 -52.78 164 -64 164 C-62.08687331 157.62291104 -60.16322467 151.54625951 -57.69140625 145.41015625 C-57.21400497 144.2094474 -57.21400497 144.2094474 -56.72695923 142.98448181 C-56.03774373 141.2522006 -55.34666636 139.52065921 -54.65390015 137.78979492 C-53.13779903 134.00121666 -51.63136726 130.20881615 -50.12440491 126.41659546 C-49.32058269 124.39382203 -48.51632483 122.37122167 -47.71165466 120.3487854 C-43.58423852 109.9703152 -39.5040032 99.57351551 -35.43063354 89.17373657 C-34.18492624 85.99342916 -32.93838908 82.81344813 -31.69165039 79.63354492 C-27.73183153 69.53232676 -23.7761591 59.42949864 -19.82624817 49.32440186 C-17.99328947 44.63592912 -16.1587972 39.9480572 -14.3241272 35.26025391 C-13.45028043 33.02618366 -12.57719705 30.79181466 -11.70492554 28.55712891 C-10.49264569 25.4514167 -9.27783002 22.34670714 -8.0625 19.2421875 C-7.7092012 18.33508026 -7.3559024 17.42797302 -6.99189758 16.49337769 C-6.65554794 15.63559723 -6.3191983 14.77781677 -5.97265625 13.89404297 C-5.68656494 13.1618454 -5.40047363 12.42964783 -5.10571289 11.67526245 C-3.48324901 7.7497256 -1.72511962 3.88151915 0 0 Z M18 26 C17.75467529 26.6674675 17.50935059 27.334935 17.2565918 28.02262878 C14.90572697 34.41806265 12.55364832 40.81304901 10.20031738 47.2075758 C8.99147294 50.49239951 7.78304436 53.77737477 6.57568359 57.06274414 C5.17677933 60.86914008 3.7763046 64.67495588 2.375 68.48046875 C2.14617126 69.10225887 1.91734253 69.724049 1.68157959 70.36468124 C-1.70612173 79.56496305 -5.15422725 88.74011323 -8.71533203 97.87480164 C-10.38390226 101.82081462 -10.38390226 101.82081462 -11 106 C8.47 106 27.94 106 48 106 C42.35152643 89.82254281 42.35152643 89.82254281 36.51953125 73.71484375 C36.13939377 72.68162491 35.75925629 71.64840607 35.36759949 70.58387756 C34.18404826 67.36787029 32.99836396 64.1526551 31.8125 60.9375 C30.61642046 57.69002893 29.42078906 54.44239319 28.2252655 51.19471741 C27.48994469 49.19768292 26.75422874 47.20079386 26.01802063 45.2040863 C23.6610017 38.80910613 21.32428556 32.40694873 19 26 C18.67 26 18.34 26 18 26 Z " fill="#FFFFFF" transform="translate(3128,2241)"/>
<path d="M0 0 C12.21 0 24.42 0 37 0 C40.03246715 7.27792117 43.04574713 14.54800373 45.94140625 21.87890625 C46.48128677 23.24218048 46.48128677 23.24218048 47.03207397 24.63299561 C48.21010861 27.60901373 49.38640392 30.58571529 50.5625 33.5625 C51.18017746 35.12440567 51.18017746 35.12440567 51.81033325 36.71786499 C59.45737782 56.05488056 67.06069596 75.40896323 74.64134216 94.77209473 C75.05231644 95.82183472 75.46329071 96.87157471 75.88671875 97.953125 C76.29829727 99.00447632 76.70987579 100.05582764 77.13392639 101.13903809 C79.83698695 108.04043592 82.5494961 114.93805749 85.26783752 121.83345032 C87.14473292 126.59472991 89.01921809 131.35695682 90.89358521 136.11923218 C91.79365538 138.4040662 92.69490987 140.68843405 93.59738159 142.97232056 C94.8440026 146.12749475 96.08651359 149.28425804 97.328125 152.44140625 C97.70205887 153.38461731 98.07599274 154.32782837 98.46125793 155.29962158 C98.79791977 156.15795593 99.1345816 157.01629028 99.48144531 157.90063477 C99.77641907 158.64837662 100.07139282 159.39611847 100.37530518 160.16651917 C101 162 101 162 101 164 C90.11 164 79.22 164 68 164 C66.185 159.276875 64.37 154.55375 62.5 149.6875 C61.63858398 147.45746216 61.63858398 147.45746216 60.75976562 145.18237305 C60.31310547 144.01230713 59.86644531 142.84224121 59.40625 141.63671875 C58.94541016 140.43748779 58.48457031 139.23825684 58.00976562 138.00268555 C57 135 57 135 57 132 C31.59 132 6.18 132 -20 132 C-20.495 134.97 -20.495 134.97 -21 138 C-21.70927021 140.10951229 -22.47455143 142.20075176 -23.28515625 144.2734375 C-23.68871338 145.31419434 -24.09227051 146.35495117 -24.50805664 147.42724609 C-25.02102295 148.73000488 -25.53398926 150.03276367 -26.0625 151.375 C-27.691875 155.54125 -29.32125 159.7075 -31 164 C-41.89 164 -52.78 164 -64 164 C-60.6244452 153.87333561 -60.6244452 153.87333561 -59.18505859 150.16259766 C-58.69607841 148.89766479 -58.69607841 148.89766479 -58.19721985 147.60717773 C-57.67807259 146.27408569 -57.67807259 146.27408569 -57.1484375 144.9140625 C-56.77748459 143.95685303 -56.40653168 142.99964355 -56.02433777 142.01342773 C-54.81024115 138.88303398 -53.592787 135.75395979 -52.375 132.625 C-51.51682429 130.41586118 -50.65867031 128.20671392 -49.80053711 125.99755859 C-43.7606993 110.46268234 -37.6585184 94.95302247 -31.51416016 79.45922852 C-27.54487792 69.44825597 -23.59480395 59.43005295 -19.66796875 49.40234375 C-19.21656021 48.24976074 -18.76515167 47.09717773 -18.30006409 45.90966797 C-16.09337896 40.27402645 -13.88856623 34.63765912 -11.68579102 29.00048828 C-10.87910172 26.9391148 -10.07238121 24.87775354 -9.265625 22.81640625 C-8.90796555 21.89939438 -8.55030609 20.98238251 -8.18180847 20.0375824 C-5.5483945 13.31342976 -2.77933971 6.67041531 0 0 Z M18 26 C17.58339111 27.14960205 17.16678223 28.2992041 16.73754883 29.48364258 C14.76423407 34.92721296 12.78875486 40.36999638 10.8125 45.8125 C10.45462402 46.79819977 10.09674805 47.78389954 9.72802734 48.79946899 C4.16119123 64.12554792 -1.46971821 79.42639484 -7.18823242 94.6965332 C-7.44791306 95.39162994 -7.70759369 96.08672668 -7.97514343 96.80288696 C-8.66895183 98.65969607 -9.36467546 100.51578923 -10.06054688 102.37182617 C-11.05609947 104.69176917 -11.05609947 104.69176917 -11 106 C8.47 106 27.94 106 48 106 C45.6240137 98.00188889 45.6240137 98.00188889 42.91870117 90.16162109 C42.53787888 89.13289886 42.15705658 88.10417664 41.76469421 87.04428101 C41.36152481 85.96490265 40.95835541 84.88552429 40.54296875 83.7734375 C40.11752274 82.62694733 39.69207672 81.48045715 39.2537384 80.29922485 C37.90124258 76.65672476 36.54442223 73.01585314 35.1875 69.375 C34.28813075 66.95453137 33.38903982 64.5339593 32.49023438 62.11328125 C28.01522296 50.06738128 23.52344338 38.02780008 19 26 C18.67 26 18.34 26 18 26 Z " fill="#FFFFFF" transform="translate(1817,2241)"/>
<path d="M0 0 C37.29 0 74.58 0 113 0 C113 8.58 113 17.16 113 26 C85.61 26 58.22 26 30 26 C30 39.53 30 53.06 30 67 C56.73 67 83.46 67 111 67 C111 75.58 111 84.16 111 93 C84.27 93 57.54 93 30 93 C30 107.85 30 122.7 30 138 C57.39 138 84.78 138 113 138 C113 146.58 113 155.16 113 164 C75.71 164 38.42 164 0 164 C0 109.88 0 55.76 0 0 Z " fill="#FFFFFF" transform="translate(2040,2241)"/>
<path d="M0 0 C37.29 0 74.58 0 113 0 C113 8.58 113 17.16 113 26 C85.61 26 58.22 26 30 26 C30 39.53 30 53.06 30 67 C56.73 67 83.46 67 111 67 C111 75.58 111 84.16 111 93 C84.27 93 57.54 93 30 93 C30 107.85 30 122.7 30 138 C57.39 138 84.78 138 113 138 C113 146.58 113 155.16 113 164 C75.71 164 38.42 164 0 164 C0 109.88 0 55.76 0 0 Z " fill="#FFFFFF" transform="translate(1639,2241)"/>
<path d="M0 0 C36.96 0 73.92 0 112 0 C112 8.58 112 17.16 112 26 C84.61 26 57.22 26 29 26 C29 39.53 29 53.06 29 67 C56.06 67 83.12 67 111 67 C111 75.58 111 84.16 111 93 C83.94 93 56.88 93 29 93 C29 107.85 29 122.7 29 138 C56.39 138 83.78 138 112 138 C112 146.58 112 155.16 112 164 C75.04 164 38.08 164 0 164 C0 109.88 0 55.76 0 0 Z " fill="#FFFFFF" transform="translate(3351,2241)"/>
<path d="M0 0 C36.96 0 73.92 0 112 0 C112 8.58 112 17.16 112 26 C84.61 26 57.22 26 29 26 C29 39.53 29 53.06 29 67 C56.06 67 83.12 67 111 67 C111 75.58 111 84.16 111 93 C83.94 93 56.88 93 29 93 C29 107.85 29 122.7 29 138 C56.39 138 83.78 138 112 138 C112 146.58 112 155.16 112 164 C75.04 164 38.08 164 0 164 C0 109.88 0 55.76 0 0 Z " fill="#FFFFFF" transform="translate(704,2241)"/>
<path d="M0 0 C6.28535414 5.55645151 12.86786616 11.65398428 17 19 C16.88989258 21.01049805 16.88989258 21.01049805 16 23 C14.0222168 24.47973633 14.0222168 24.47973633 11.44921875 25.83203125 C10.52302734 26.31994141 9.59683594 26.80785156 8.64257812 27.31054688 C7.66740234 27.80619141 6.69222656 28.30183594 5.6875 28.8125 C4.72392578 29.32748047 3.76035156 29.84246094 2.76757812 30.37304688 C-4.36976735 34.06784734 -4.36976735 34.06784734 -7.18164062 33.76513672 C-9.94619736 32.60185519 -11.30006283 30.61249174 -13.1875 28.3125 C-20.68554867 19.72404882 -29.84014038 14.48256291 -41 12 C-58.7207368 10.90921802 -73.23934214 14.13360991 -87 26 C-99.34988831 40.43159297 -104.31962237 57.01833004 -103.20703125 75.7734375 C-101.92795988 89.52948811 -95.80522245 104.20758483 -85.3359375 113.47265625 C-71.95341802 124.23925114 -57.74609145 127.44701033 -41 126 C-27.63644359 123.64835203 -17.38630845 116.03438805 -9.0625 105.5625 C-8.711875 105.046875 -8.36125 104.53125 -8 104 C-4.24936435 104.5866753 -1.440724 105.64940008 1.86328125 107.50390625 C2.74951172 107.99697266 3.63574219 108.49003906 4.54882812 108.99804688 C5.9168457 109.77245117 5.9168457 109.77245117 7.3125 110.5625 C8.24384766 111.08263672 9.17519531 111.60277344 10.13476562 112.13867188 C12.42663795 113.41976974 14.71481613 114.70702105 17 116 C14.65559153 126.5019092 3.25637395 136.06952312 -5.375 141.75 C-26.25495322 154.29539609 -49.21283427 156.70740659 -72.80859375 151.55224609 C-92.61234048 146.56159601 -111.50400796 133.65806953 -122.14599609 116.11035156 C-133.8864452 95.30124046 -138.49795933 69.44010355 -132.3125 46 C-131.59651241 43.64925751 -130.82976328 41.31303294 -130 39 C-129.43925781 37.39705078 -129.43925781 37.39705078 -128.8671875 35.76171875 C-120.81498947 14.77801064 -105.25618212 0.1915959 -85.20703125 -9.23828125 C-58.15298027 -21.14509566 -23.34127576 -18.52675674 0 0 Z " fill="#FFFFFF" transform="translate(1466,2254)"/>
<path d="M0 0 C10.89 0 21.78 0 33 0 C35.94391479 10.2753458 38.88775913 20.55071177 41.83150983 30.82610458 C43.32258891 36.03082992 44.81368833 41.23554942 46.30483246 46.44025612 C53.22925336 70.60943836 60.15217363 94.77904862 67.07035208 118.95001853 C69.77544543 128.40107895 72.48080851 137.85206217 75.18622112 147.30303121 C75.86549389 149.67599305 76.54475218 152.04895904 77.22399616 154.42192912 C85.66998201 183.92812127 94.13059124 213.42999702 102.62647676 242.92186129 C104.33164139 248.84163576 106.03482218 254.76197778 107.7364502 260.68276978 C107.96816091 261.48900374 108.19987163 262.29523771 108.43860388 263.12590301 C109.57380999 267.07616622 110.70872457 271.02651305 111.84340668 274.9769268 C114.21581773 283.23499292 116.59524989 291.49097429 118.98356795 299.74445421 C120.58834585 305.29228452 122.1852506 310.84233982 123.77565598 316.39430732 C124.67593471 319.53607961 125.58108522 322.67630036 126.49382782 325.81447792 C127.46547662 329.15675206 128.42345379 332.50264208 129.37792969 335.84985352 C129.66299881 336.81781986 129.94806793 337.78578621 130.24177551 338.78308487 C130.49156662 339.66976223 130.74135773 340.55643959 130.99871826 341.46998596 C131.21798351 342.23022851 131.43724876 342.99047106 131.66315842 343.77375126 C132.2963621 347.95871229 130.79750305 351.88057505 129.58984375 355.86328125 C129.32236328 356.74951172 129.05488281 357.63574219 128.77929688 358.54882812 C128.50150391 359.46083984 128.22371094 360.37285156 127.9375 361.3125 C127.65583984 362.24384766 127.37417969 363.17519531 127.08398438 364.13476562 C126.39140006 366.42381547 125.69667622 368.71219287 125 371 C124.01 371 123.02 371 122 371 C119.47499098 363.47180414 116.95344587 355.94245997 114.4360323 348.41172123 C113.26635212 344.91301287 112.09558667 341.4146764 110.92211914 337.91723633 C101.96800964 311.22565102 101.96800964 311.22565102 98.86981201 300.33253479 C95.64093369 289.10830134 91.7734325 278.07140844 88.0625 267 C87.4273895 265.09981235 86.79228043 263.19962421 86.15738678 261.29936409 C80.12457567 243.24634569 74.00588096 225.22329777 67.83734131 207.21624756 C64.84670502 198.48546451 61.87091443 189.75020636 58.9375 181 C58.43645752 179.5162085 58.43645752 179.5162085 57.92529297 178.00244141 C56.30990036 173.16283357 54.78715407 168.30986296 53.3755188 163.40661621 C49.79738048 150.9859395 45.67104268 138.75344091 41.5625 126.5 C40.76103792 124.10249484 39.95968846 121.70495204 39.15844727 119.30737305 C33.46757086 102.29691577 27.69245927 85.31600461 21.88076782 68.3465271 C9.36013947 31.78393883 9.36013947 31.78393883 5.16796875 17.0390625 C3.51924997 11.33747316 1.74545327 5.67272312 0 0 Z " fill="#EDA520" transform="translate(841,1600)"/>
<path d="M0 0 C42.24 0 84.48 0 128 0 C128 8.58 128 17.16 128 26 C111.83 26 95.66 26 79 26 C79 71.54 79 117.08 79 164 C69.1 164 59.2 164 49 164 C49 118.46 49 72.92 49 26 C32.83 26 16.66 26 0 26 C0 17.42 0 8.84 0 0 Z " fill="#FFFFFF" transform="translate(3209,2241)"/>
<path d="M0 0 C42.24 0 84.48 0 128 0 C128 8.58 128 17.16 128 26 C111.83 26 95.66 26 79 26 C79 71.54 79 117.08 79 164 C69.1 164 59.2 164 49 164 C49 118.46 49 72.92 49 26 C32.83 26 16.66 26 0 26 C0 17.42 0 8.84 0 0 Z " fill="#FFFFFF" transform="translate(1041,2241)"/>
<path d="M0 0 C42.24 0 84.48 0 128 0 C128 8.58 128 17.16 128 26 C111.83 26 95.66 26 79 26 C79 71.54 79 117.08 79 164 C69.43 164 59.86 164 50 164 C50 118.46 50 72.92 50 26 C33.5 26 17 26 0 26 C0 17.42 0 8.84 0 0 Z " fill="#FFFFFF" transform="translate(1898,2241)"/>
<path d="M0 0 C9.57 0 19.14 0 29 0 C29 54.12 29 108.24 29 164 C19.43 164 9.86 164 0 164 C0 109.88 0 55.76 0 0 Z " fill="#FFFFFF" transform="translate(2862,2241)"/>
<path d="M0 0 C9.57 0 19.14 0 29 0 C29 54.12 29 108.24 29 164 C19.43 164 9.86 164 0 164 C0 109.88 0 55.76 0 0 Z " fill="#FFFFFF" transform="translate(999,2241)"/>
<path d="M0 0 C4.10638578 3.91374053 5.8183057 8.0988673 6.125 13.734375 C5.86096523 18.52000526 4.61862817 22.24394113 1.34375 25.796875 C-3.71894603 30.30181638 -7.69328218 31.35980866 -14.4296875 31.28125 C-19.62040135 30.71326915 -22.83888097 28.25278632 -26.375 24.4375 C-29.76359201 19.35461199 -29.71833886 13.91620657 -29 8 C-26.99157412 2.89143126 -24.11022544 -0.77246583 -19 -3 C-12.15765432 -5.50886008 -5.78523058 -4.09938771 0 0 Z " fill="#FFFFFF" transform="translate(2249,2376)"/>
<path d="M0 0 C4.48741845 2.48615324 7.11474899 5.40674698 8.75 10.3125 C9.23988853 15.87795491 9.51814541 20.71930952 7.0625 25.8125 C3.32996029 29.84767806 0.1645153 32.94836463 -5.484375 33.55078125 C-11.71648207 33.73464776 -15.20745524 33.04398312 -20.25 29.3125 C-25.12101261 23.92874922 -25.60423213 20.49681406 -25.52734375 13.36328125 C-25.11925987 8.87435856 -24.05164838 6.85142427 -21.25 3.3125 C-14.61639422 -1.83192897 -7.7777577 -3.60539049 0 0 Z " fill="#FFFFFF" transform="translate(1257.25,2373.6875)"/>
</svg>
